<?xml version="1.0" encoding="utf-8"?>
<!-- Generator: Adobe Illustrator 26.0.1, SVG Export Plug-In . SVG Version: 6.00 Build 0)  -->
<svg version="1.1" id="Layer_1" xmlns="http://www.w3.org/2000/svg" xmlns:xlink="http://www.w3.org/1999/xlink" x="0px" y="0px"
	 viewBox="0 0 486.3 281.9" style="enable-background:new 0 0 486.3 281.9;" xml:space="preserve">
<style type="text/css">
	.st0{fill-rule:evenodd;clip-rule:evenodd;fill:#37323E;}
	.st1{fill-rule:evenodd;clip-rule:evenodd;fill:#FFFFFF;}
</style>
<path id="Color_Fill_1" class="st0" d="M219.2,0c59.4-0.8,88.8,24.8,110,62c8.1-4.9,15.7-11.1,26-14c28.4-8.1,53.5,10.8,63,26
	c3.9,6.3,6.2,15.1,8,23c1.2,5.4-1.4,13,1,17c3.9,3,9.7,3.4,14,6c11.5,7,23.9,17.7,31,29c5.3,8.4,9.3,19.5,12,30
	c7.2,28.4-6.4,53.4-17,68c-10.6,14.7-25.7,25.6-43,31c-19.6,6.3-50.7,3-75,3h-249c-15.1,0-34.7,2.6-48-1c-10.4-2.9-20.3-7.6-29-14
	c-27.7-20.6-30.5-67-9-96c5-6.7,14.4-13,22-17l9-3c1.4-1.1,0.6-2.8,1-5c-6.9-9.9,0.5-31.1,4-38c13.9-27.3,37.2-39.2,75-30
	c3.5-6.4,5.1-14.6,9-21c11.7-19.2,28.4-35.8,49-46l24-8C211.4,0.9,216.1,2,219.2,0z"/>
<path id="C" class="st1" d="M204,152.8c24.4,0,41.9-14.9,45.5-35.4h-28.4c-2.1,8.4-8.2,11.8-15.7,11.8c-10.8,0-18-6.9-18-22.5
	c0-15.3,6.6-22,17.6-22c8,0,13.9,3.8,16,11.9h28.7c-3.9-21.4-18.3-35.5-44-35.5c-28.9,0-47,17.7-47,45.6
	C158.6,134.8,177.3,152.8,204,152.8z"/>
<path id="_2" class="st1" d="M196,227.6c2-1.8,4.9-3.1,8-4.2l12.5-4.7c13-4.8,24.1-12.8,24.1-28.7c0-16.5-11.9-29.5-37.1-29.5
	c-24.4,0-38.1,12.2-39.4,34.2h26c0.5-7.5,3.7-10.8,11.1-10.8c7,0,11.1,2.8,11.1,8.5c0,4.8-2.7,7.4-11.4,10.7l-9.1,3.4
	c-18.7,7-27.3,15.9-27.3,34.1v9.5h76.8v-22.5H196z"/>
<path id="o" class="st1" d="M282.2,203c23.4,0,39.8-16.4,39.8-42.1s-16.4-42.1-39.8-42.1c-23.6,0-39.9,16.4-39.9,42.1
	S258.6,203,282.2,203z M282.2,189.5c-14.4,0-23.7-10.3-23.7-28.7s9.4-28.7,23.7-28.7c14.2,0,23.6,10.3,23.6,28.7
	S296.4,189.5,282.2,189.5z"/>
<path class="st1" d="M309.5,185l40.8,40.7c1.5,1.5,1.5,3.9-0.1,5.4c-1.5,1.5-3.9,1.5-5.4,0L304,190.4c-1.5-1.5-1.6-3.9-0.1-5.4
	C305.5,183.5,307.9,183.4,309.5,185C309.5,184.9,309.5,185,309.5,185z"/>
</svg>
